<?xml version="1.0" encoding="UTF-8"?>
<svg width="40px" height="40px" viewBox="0 0 40 40" version="1.1" xmlns="http://www.w3.org/2000/svg" xmlns:xlink="http://www.w3.org/1999/xlink">
    <!-- Generator: sketchtool 52.5 (67469) - http://www.bohemiancoding.com/sketch -->
    <title>B7FE090D-7E98-4F74-9711-E592BD0F87F2</title>
    <desc>Created with sketchtool.</desc>
    <g id="Page-1" stroke="none" stroke-width="1" fill="none" fill-rule="evenodd">
        <g id="Artboard" transform="translate(-1660.000000, -62.000000)">
            <g id="main" transform="translate(60.000000, 60.000000)">
                <g id="link" transform="translate(1600.000000, 1.000000)">
                    <g id="icon_money" transform="translate(0.000000, 1.000000)">
                        <circle id="Oval" fill="#2A2A6C" cx="20" cy="20" r="20"></circle>
                        <path d="M18.66,21.34 L18.66,22.52 L23.1,22.52 L23.1,23.66 L18.66,23.66 L18.66,26 L16.64,26 L16.64,23.66 L14.6,23.66 L14.6,22.52 L16.64,22.52 L16.64,12 L22.14,12 C23.9666758,12 25.3933282,12.4033293 26.42,13.21 C27.4466718,14.0166707 27.96,15.1666592 27.96,16.66 C27.96,18.1666742 27.4466718,19.3233293 26.42,20.13 C25.3933282,20.9366707 23.9666758,21.34 22.14,21.34 L18.66,21.34 Z M25.94,16.68 C25.94,15.7333286 25.6133366,15.0066692 24.96,14.5 C24.3066634,13.9933308 23.3666728,13.74 22.14,13.74 L18.66,13.74 L18.66,19.68 L22.14,19.68 C23.3533394,19.68 24.2899967,19.4166693 24.95,18.89 C25.6100033,18.3633307 25.94,17.6266714 25.94,16.68 Z" id="₽" fill="#FFFFFF"></path>
                    </g>
                </g>
            </g>
        </g>
    </g>
</svg>