<?xml version="1.0" encoding="UTF-8"?>
<svg width="40px" height="40px" viewBox="0 0 40 40" version="1.1" xmlns="http://www.w3.org/2000/svg" xmlns:xlink="http://www.w3.org/1999/xlink">
    <!-- Generator: sketchtool 52.5 (67469) - http://www.bohemiancoding.com/sketch -->
    <title>EF68916A-78E2-4531-96D4-702FBF139A7D</title>
    <desc>Created with sketchtool.</desc>
    <g id="Page-1" stroke="none" stroke-width="1" fill="none" fill-rule="evenodd">
        <g id="Artboard" transform="translate(-1719.000000, -3099.000000)">
            <g id="footer" transform="translate(104.000000, 2170.000000)">
                <g id="link" transform="translate(1615.000000, 929.000000)">
                    <g id="ik_question">
                        <circle id="Oval" fill="#2A2A6C" cx="20" cy="20" r="20"></circle>
                        <path d="M19.56,21.58 C19.56,21.046664 19.6499991,20.5766687 19.83,20.17 C20.0100009,19.7633313 20.2299987,19.4200014 20.49,19.14 C20.7500013,18.8599986 21.0933312,18.5266686 21.52,18.14 C22.053336,17.673331 22.4466654,17.2700017 22.7,16.93 C22.9533346,16.5899983 23.08,16.1800024 23.08,15.7 C23.08,15.0466634 22.8266692,14.5233353 22.32,14.13 C21.8133308,13.7366647 21.1133378,13.54 20.22,13.54 C18.6599922,13.54 17.4666708,14.0666614 16.64,15.12 L15.18,14.08 C15.7400028,13.3599964 16.4566623,12.8066686 17.33,12.42 C18.2033377,12.0333314 19.2133276,11.84 20.36,11.84 C21.8133406,11.84 22.9666624,12.1566635 23.82,12.79 C24.6733376,13.4233365 25.1,14.2933278 25.1,15.4 C25.1,15.9466694 25.0100009,16.4299979 24.83,16.85 C24.6499991,17.2700021 24.4333346,17.6199986 24.18,17.9 C23.9266654,18.1800014 23.5866688,18.5133314 23.16,18.9 C22.6133306,19.3933358 22.2100013,19.8266648 21.95,20.2 C21.6899987,20.5733352 21.56,21.0333306 21.56,21.58 L19.56,21.58 Z M20.58,26.12 C20.2066648,26.12 19.8966679,25.9966679 19.65,25.75 C19.4033321,25.5033321 19.28,25.2000018 19.28,24.84 C19.28,24.4799982 19.4033321,24.1766679 19.65,23.93 C19.8966679,23.6833321 20.2066648,23.56 20.58,23.56 C20.9533352,23.56 21.2599988,23.6833321 21.5,23.93 C21.7400012,24.1766679 21.86,24.4799982 21.86,24.84 C21.86,25.2000018 21.7366679,25.5033321 21.49,25.75 C21.2433321,25.9966679 20.9400018,26.12 20.58,26.12 Z" id="?" fill="#FFFFFF"></path>
                    </g>
                </g>
            </g>
        </g>
    </g>
</svg>