<?xml version="1.0" encoding="UTF-8"?>
<svg width="87px" height="14px" viewBox="0 0 87 14" version="1.1" xmlns="http://www.w3.org/2000/svg" xmlns:xlink="http://www.w3.org/1999/xlink">
    <!-- Generator: sketchtool 52.5 (67469) - http://www.bohemiancoding.com/sketch -->
    <title>ECDE231B-ED64-49D8-888A-8EF1EC3D843E</title>
    <desc>Created with sketchtool.</desc>
    <g id="Page-1" stroke="none" stroke-width="1" fill="none" fill-rule="evenodd">
        <g id="Artboard" transform="translate(-60.000000, -73.000000)" fill="#000000">
            <g id="main" transform="translate(60.000000, 60.000000)">
                <path d="M7.524,26.216 C6.23999358,26.216 5.07900519,25.9370028 4.041,25.379 C3.00299481,24.8209972 2.18700297,24.047005 1.593,23.057 C0.99899703,22.066995 0.702,20.9480062 0.702,19.7 C0.702,18.4519938 0.99899703,17.3330049 1.593,16.343 C2.18700297,15.352995 3.00299481,14.5790028 4.041,14.021 C5.07900519,13.4629972 6.24599352,13.184 7.542,13.184 C8.63400546,13.184 9.62099559,13.3759981 10.503,13.76 C11.3850044,14.1440019 12.125997,14.6959964 12.726,15.416 L10.854,17.144 C10.0019957,16.1599951 8.9460063,15.668 7.686,15.668 C6.9059961,15.668 6.21000306,15.8389983 5.598,16.181 C4.98599694,16.5230017 4.50900171,16.9999969 4.167,17.612 C3.82499829,18.2240031 3.654,18.9199961 3.654,19.7 C3.654,20.4800039 3.82499829,21.1759969 4.167,21.788 C4.50900171,22.4000031 4.98599694,22.8769983 5.598,23.219 C6.21000306,23.5610017 6.9059961,23.732 7.686,23.732 C8.9460063,23.732 10.0019957,23.234005 10.854,22.238 L12.726,23.966 C12.125997,24.6980037 11.3820044,25.2559981 10.494,25.64 C9.60599556,26.0240019 8.61600546,26.216 7.524,26.216 Z M24.246,26 L24.246,20.204 L21.348,25.064 L20.16,25.064 L17.334,20.186 L17.334,26 L14.796,26 L14.796,16.316 L17.73,16.316 L20.826,21.914 L24.12,16.316 L26.748,16.316 L26.784,26 L24.246,26 Z M39.2579999,21.194 C39.2579999,21.2300002 39.2400001,21.4819977 39.2039999,21.95 L31.8779999,21.95 C32.0100006,22.550003 32.3219975,23.0239983 32.8139999,23.372 C33.3060024,23.7200017 33.9179963,23.894 34.6499999,23.894 C35.1540024,23.894 35.600998,23.8190008 35.9909999,23.669 C36.3810019,23.5189993 36.7439982,23.2820016 37.0799999,22.958 L38.5739999,24.578 C37.6619954,25.6220052 36.3300087,26.144 34.5779999,26.144 C33.4859945,26.144 32.5200041,25.9310021 31.6799999,25.505 C30.8399957,25.0789979 30.1920022,24.4880038 29.7359999,23.732 C29.2799976,22.9759962 29.0519999,22.1180048 29.0519999,21.158 C29.0519999,20.2099953 29.2769977,19.3550038 29.7269999,18.593 C30.1770022,17.8309962 30.794996,17.2370021 31.5809999,16.811 C32.3670039,16.3849979 33.2459951,16.172 34.2179999,16.172 C35.1660047,16.172 36.0239961,16.375998 36.7919999,16.784 C37.5600038,17.192002 38.1629977,17.7769962 38.6009999,18.539 C39.0390021,19.3010038 39.2579999,20.185995 39.2579999,21.194 Z M34.2359999,18.296 C33.5999967,18.296 33.0660021,18.4759982 32.6339999,18.836 C32.2019978,19.1960018 31.9380004,19.6879969 31.8419999,20.312 L36.6119999,20.312 C36.5159994,19.6999969 36.2520021,19.2110018 35.8199999,18.845 C35.3879978,18.4789982 34.860003,18.296 34.2359999,18.296 Z M49.5899999,18.62 L46.3139999,18.62 L46.3139999,26 L43.5239999,26 L43.5239999,18.62 L40.2479999,18.62 L40.2479999,16.316 L49.5899999,16.316 L49.5899999,18.62 Z M60.1739998,16.316 L60.1739998,26 L57.3659998,26 L57.3659998,22.4 C56.5499958,22.808002 55.6500048,23.012 54.6659998,23.012 C53.3579933,23.012 52.3710032,22.715003 51.7049998,22.121 C51.0389965,21.526997 50.7059998,20.6060062 50.7059998,19.358 L50.7059998,16.316 L53.5139998,16.316 L53.5139998,19.178 C53.5139998,19.7660029 53.6669983,20.1919987 53.9729998,20.456 C54.2790014,20.7200013 54.719997,20.852 55.2959998,20.852 C56.0280035,20.852 56.7179966,20.6960016 57.3659998,20.384 L57.3659998,16.316 L60.1739998,16.316 Z M63.2519998,16.316 L66.0419998,16.316 L66.0419998,22.076 L70.7579998,16.316 L73.3319998,16.316 L73.3319998,26 L70.5419998,26 L70.5419998,20.24 L65.8439998,26 L63.2519998,26 L63.2519998,16.316 Z M80.6759998,22.328 L79.2179998,22.328 L79.2179998,26 L76.4099998,26 L76.4099998,16.316 L79.2179998,16.316 L79.2179998,20.078 L80.7299998,20.078 L83.3579998,16.316 L86.3459998,16.316 L82.9619998,20.96 L86.5799998,26 L83.2679998,26 L80.6759998,22.328 Z" id="logo"></path>
            </g>
        </g>
    </g>
</svg>