<?xml version="1.0" encoding="UTF-8"?>
<svg width="187px" height="313px" viewBox="0 0 187 313" version="1.1" xmlns="http://www.w3.org/2000/svg" xmlns:xlink="http://www.w3.org/1999/xlink">
    <!-- Generator: sketchtool 52.5 (67469) - http://www.bohemiancoding.com/sketch -->
    <title>61F6C9C9-412A-4E47-B24C-6FB9E0CCB659</title>
    <desc>Created with sketchtool.</desc>
    <g id="Page-1" stroke="none" stroke-width="1" fill="none" fill-rule="evenodd">
        <g id="Artboard" transform="translate(-1453.000000, -2609.000000)">
            <g id="footer" transform="translate(104.000000, 2170.000000)">
                <g id="illistration" transform="translate(1349.000000, 439.000000)">
                    <path d="M58.099035,19.790775 C59.512035,55.825775 46.794035,125.074775 41.141035,158.984775 C35.489035,192.904775 22.480035,203.444775 16.266035,223.254775 C10.052035,243.064775 16.266035,312.314775 16.266035,312.314775 L7.93203496,312.314775 C7.93203496,312.314775 2.98603496,231.414775 5.10603496,218.694775 C7.22503496,205.974775 -1.25396504,179.834775 0.160034956,161.454775 C1.57303496,143.084775 27.245035,82.911775 33.840035,64.304775 C40.435035,45.698775 49.620035,5.83577504 54.213035,0.711775041 C58.806035,-4.41022496 58.099035,19.790775 58.099035,19.790775" id="Fill-535" fill="#4E5E9B"></path>
                    <path d="M111.471,73.802 C100.932,84.573 80.44,118.048 58,165.709 C62.736,159.439 77.635,153.679 85.25,148.5 C94.082,142.494 117.4,122.004 138.95,95.154 C156.145,73.731 170.014,55.602 180.4,25.458 L186.998,0 C186.998,0 186.998,0 166.566,25.802 C146.135,51.604 122.233,62.802 111.471,73.802" id="Fill-537" fill="#CFD4E2"></path>
                </g>
            </g>
        </g>
    </g>
</svg>