<?xml version="1.0" encoding="UTF-8"?>
<svg width="229px" height="232px" viewBox="0 0 229 232" version="1.1" xmlns="http://www.w3.org/2000/svg" xmlns:xlink="http://www.w3.org/1999/xlink">
    <!-- Generator: sketchtool 52.5 (67469) - http://www.bohemiancoding.com/sketch -->
    <title>D2B0AEDC-788A-469E-B950-6F2498ECD377</title>
    <desc>Created with sketchtool.</desc>
    <defs>
        <path d="M140.162816,122.70935 C140.57359,122.943236 140.939392,123.216857 141.253677,123.534016 C173.204064,155.776509 173.231946,171.807611 151.126775,210.082628 C129.021604,248.357644 105.7803,320.325975 72.5094523,311.768994 C32.6004903,301.504745 85.4171781,195.49409 94.2919649,178.281441 L0.7152115,56.1565277 L42.5393443,0.535922726 C48.4804592,9.4607336 109.084707,82.6070365 140.162816,122.70935 Z" id="path-1"></path>
    </defs>
    <g id="Page-1" stroke="none" stroke-width="1" fill="none" fill-rule="evenodd">
        <g id="Artboard" transform="translate(-1286.000000, -1293.000000)">
            <g id="steps" transform="translate(0.000000, 1065.000000)">
                <g id="sock" transform="translate(1416.731416, 357.149919) rotate(52.000000) translate(-1416.731416, -357.149919) translate(1333.231416, 200.649919)">
                    <mask id="mask-2" fill="white">
                        <use xlink:href="#path-1"></use>
                    </mask>
                    <use id="Mask" fill="#4E5E9B" xlink:href="#path-1"></use>
                    <path d="M145.204376,128.15485 C138.018073,135.950126 135.72586,148.666276 138.327737,166.303299 C140.929615,183.940323 150.336814,192.983399 166.549337,193.432529 L174.779837,153.420199 L145.204376,128.15485 Z" id="Path-2" fill="#D52D2A" mask="url(#mask-2)"></path>
                </g>
            </g>
        </g>
    </g>
</svg>